HIERARCHY
ROOT root
{
	OFFSET	0	13.1	24.9
	CHANNELS 6  Xposition Yposition Zposition Xrotation Yrotation Zrotation
	JOINT spine_1
	{
		OFFSET	0	9.99999	0
		CHANNELS 3  Xrotation Yrotation Zrotation
		JOINT spine_2
		{
			OFFSET	0	112	-10
			CHANNELS 3  Xrotation Yrotation Zrotation
			JOINT spine_3
			{
				OFFSET	0	206.5	19.3
				CHANNELS 3  Xrotation Yrotation Zrotation
				JOINT spine_4
				{
					OFFSET	0	110.4	14.6
					CHANNELS 3  Xrotation Yrotation Zrotation
					JOINT neck_1
					{
						OFFSET	0	71.8	-50.3
						CHANNELS 3  Xrotation Yrotation Zrotation
						JOINT neck_2
						{
							OFFSET	0	86.2	-25.8
							CHANNELS 3  Xrotation Yrotation Zrotation
							JOINT head_ee
							{
								OFFSET	0	179.8	-8.7
								CHANNELS 3  Xrotation Yrotation Zrotation
								End Site
								{
									OFFSET	1	0	0
								}
							}
						}
					}
					JOINT left_clavicle
					{
						OFFSET	-43.2	22.4	-70.8
						CHANNELS 3  Xrotation Yrotation Zrotation
						JOINT left_shoulder
						{
							OFFSET	-93.9	-5.79999	48.7
							CHANNELS 3  Xrotation Yrotation Zrotation
							JOINT left_elbow
							{
								OFFSET	-291.4	-30.8	15.2
								CHANNELS 3  Xrotation Yrotation Zrotation
								JOINT left_lowarm_twist
								{
									OFFSET	-110.7	-3.89999	13.6
									CHANNELS 3  Xrotation Yrotation Zrotation
									JOINT left_hand
									{
										OFFSET	-110.7	-3.89999	13.6
										CHANNELS 3  Xrotation Yrotation Zrotation
										JOINT left_ee
										{
											OFFSET	-80.8	-5.10001	12.1
											CHANNELS 3  Xrotation Yrotation Zrotation
											End Site
											{
												OFFSET	1	0	0
											}
										}
									}
								}
							}
						}
					}
					JOINT right_clavicle
					{
						OFFSET	43.2	22.4	-70.8
						CHANNELS 3  Xrotation Yrotation Zrotation
						JOINT right_shoulder
						{
							OFFSET	93.9	-5.79999	48.7
							CHANNELS 3  Xrotation Yrotation Zrotation
							JOINT right_elbow
							{
								OFFSET	291.4	-30.8	15.2
								CHANNELS 3  Xrotation Yrotation Zrotation
								JOINT right_lowarm_twist
								{
									OFFSET	110.7	-3.89999	13.6
									CHANNELS 3  Xrotation Yrotation Zrotation
									JOINT right_hand
									{
										OFFSET	110.7	-3.89999	13.6
										CHANNELS 3  Xrotation Yrotation Zrotation
										JOINT right_ee
										{
											OFFSET	80.8	-5.10001	12.1
											CHANNELS 3  Xrotation Yrotation Zrotation
											End Site
											{
												OFFSET	1	0	0
											}
										}
									}
								}
							}
						}
					}
				}
			}
		}
	}
	JOINT left_hip
	{
		OFFSET	-82.8	-127.5	0.300001
		CHANNELS 3  Xrotation Yrotation Zrotation
		JOINT left_knee
		{
			OFFSET	-28.2	-396.7	2.2
			CHANNELS 3  Xrotation Yrotation Zrotation
			JOINT left_ankle
			{
				OFFSET	-11.7	-411.3	35.4
				CHANNELS 3  Xrotation Yrotation Zrotation
				JOINT left_toes
				{
					OFFSET	0	-60	-88.6
					CHANNELS 3  Xrotation Yrotation Zrotation
					JOINT left_foot_ee
					{
						OFFSET	-22.5	-16.5	-42.2
						CHANNELS 3  Xrotation Yrotation Zrotation
						End Site
						{
							OFFSET	1	0	0
						}
					}
				}
			}
		}
	}
	JOINT right_hip
	{
		OFFSET	82.8	-127.5	0.300001
		CHANNELS 3  Xrotation Yrotation Zrotation
		JOINT right_knee
		{
			OFFSET	28.2	-396.7	2.2
			CHANNELS 3  Xrotation Yrotation Zrotation
			JOINT right_ankle
			{
				OFFSET	11.7	-411.3	35.4
				CHANNELS 3  Xrotation Yrotation Zrotation
				JOINT right_toes
				{
					OFFSET	0	-60	-88.6
					CHANNELS 3  Xrotation Yrotation Zrotation
					JOINT right_foot_ee
					{
						OFFSET	22.5	-16.5	-42.2
						CHANNELS 3  Xrotation Yrotation Zrotation
						End Site
						{
							OFFSET	1	0	0
						}
					}
				}
			}
		}
	}
}
MOTION
Frames: 15
Frame Time: 0.02
1993.0 685.902 -1350.31 -43.147 75.3424 40.4544 3.43903 0.472618 1.61676 3.4404 0.368796 1.64355 3.45044 0.116555 1.68037 3.4467 0.38044 1.6409 -6.84109 4.48734 -5.31869 -6.73967 12.1774 -4.44233 -0.0 0.0 -0.0 -3.16607 22.3265 -1.85463 -36.5637 -21.8526 67.9384 0.344174 -9.67572 0.0291302 9.79089 0.240714 -1.22601 -0.188111 16.4103 5.53305 -0.0 0.0 -0.0 12.2287 24.0588 -24.1119 26.238 19.9938 -57.3413 2.98603 55.9282 -1.58556 0.9293 -0.0318148 0.114422 0.744433 12.7953 0.425512 0.0 0.0 0.0 37.305 -8.24421 -3.23447 -1.56345 0.0612101 0.232119 2.46402 8.27845 -0.358368 -34.3343 0.0 0.0 -0.0 0.0 -0.0 -2.17987 -5.59372 3.71649 -14.9967 -0.321672 -2.27238 39.3205 13.7239 5.06576 -9.23562 0.0 0.0 0.0 0.0 0.0 
1973.71 684.756 -1345.04 -40.7736 74.2922 38.2547 3.45873 0.475482 1.7041 3.46027 0.366099 1.73089 3.4707 0.101333 1.76627 3.46655 0.378969 1.72812 -5.73302 4.29894 -5.33278 -5.61191 11.8801 -4.62251 -0.0 0.0 -0.0 -2.91187 22.4632 -1.46954 -36.5366 -21.6163 68.0953 0.370091 -10.389 0.0336452 10.2274 0.246537 -1.28147 -0.15663 17.563 6.18234 -0.0 0.0 -0.0 12.0059 23.5524 -23.6505 25.8536 21.1657 -57.715 3.05439 56.5269 -1.64238 -0.845826 0.030569 -0.10369 1.01497 11.6113 -1.90884 0.0 0.0 0.0 37.7717 -8.24738 -3.19559 -4.11736 0.147491 0.614541 2.26082 9.41422 -0.329051 -34.579 0.0 0.0 -0.0 0.0 -0.0 -2.7756 -4.94122 3.96391 -14.1837 -0.319573 -2.14766 39.0102 12.2769 4.99696 -9.47684 0.0 0.0 0.0 0.0 0.0 
1953.17 685.23 -1342.1 -39.1228 73.0608 36.804 3.60143 0.532358 1.72585 3.60299 0.421477 1.75622 3.61521 0.156834 1.79925 3.61096 0.43898 1.75193 -5.42715 3.97295 -5.89858 -5.28121 11.7122 -5.2944 -0.0 0.0 -0.0 -2.65851 22.6192 -1.08447 -36.0751 -21.6981 68.2231 0.398868 -11.1772 0.0390293 10.5031 0.249996 -1.31652 -0.11098 18.3689 6.77582 -0.0 0.0 -0.0 11.9955 23.5366 -23.6283 24.8548 21.8243 -58.239 3.17599 57.5469 -1.74441 -1.81171 0.0673474 -0.221541 1.00197 10.6156 -2.25068 0.0 0.0 0.0 37.4938 -8.2545 -3.73515 -6.26726 0.206841 0.939123 3.63604 10.2214 -0.527467 -34.6938 0.0 0.0 -0.0 0.0 -0.0 -3.17785 -4.70215 4.335 -14.4205 -0.320367 -2.18399 38.7791 11.9804 4.96831 -9.84513 0.0 0.0 0.0 0.0 0.0 
1932.51 680.404 -1340.73 -37.5622 72.2111 35.7122 3.73213 0.513018 1.57264 3.73341 0.41192 1.60208 3.74431 0.173903 1.64501 3.74079 0.431487 1.59693 -4.0183 3.41024 -6.25165 -3.84037 11.0153 -5.91579 -0.0 0.0 -0.0 -2.89447 23.4665 -1.24949 -36.633 -23.1186 67.0436 0.524016 -14.552 0.0669054 10.3992 0.248712 -1.3033 -0.00321316 18.7028 7.55893 -0.0 0.0 -0.0 12.0651 24.2807 -23.7142 24.8478 22.9422 -58.7401 3.13589 57.2168 -1.71064 -3.90396 0.153805 -0.474627 1.02143 8.60637 -3.24386 0.0 0.0 0.0 38.0476 -8.43046 -4.14212 -10.3606 0.285993 1.56213 8.73928 11.0691 -1.24935 -34.4678 0.0 0.0 -0.0 0.0 -0.0 -3.97914 -4.55732 4.58775 -14.9979 -0.321674 -2.27256 39.1119 10.6043 4.96327 -9.38791 0.0 0.0 0.0 0.0 0.0 
1912.91 678.133 -1337.44 -38.575 71.3451 36.9067 3.98351 0.499656 1.80664 3.98524 0.383703 1.83476 3.99655 0.120286 1.87058 3.9919 0.41415 1.82813 -3.61679 3.53888 -5.90158 -3.44627 10.9998 -5.5783 -0.0 0.0 -0.0 -2.88235 23.8607 -1.15603 -36.9848 -25.6253 65.4402 0.591028 -16.319 0.0847428 11.644 0.262518 -1.4617 0.0177923 20.7393 8.45817 -0.0 0.0 -0.0 12.1845 24.7669 -23.9376 24.8927 23.3661 -59.145 2.95383 55.6396 -1.55893 -5.14911 0.209633 -0.62371 1.04025 7.17928 -3.97867 0.0 0.0 0.0 38.8531 -8.37266 -4.19036 -13.101 0.31403 1.98164 13.156 10.1798 -1.85045 -35.3015 0.0 0.0 -0.0 0.0 -0.0 -3.88495 -4.37162 5.32395 -15.7241 -0.32205 -2.38398 36.4502 6.96868 4.64406 -8.67957 0.0 0.0 0.0 0.0 0.0 
1889.05 679.533 -1335.8 -38.751 70.9892 36.6231 4.07827 0.541675 1.91807 4.08022 0.418549 1.94864 4.09329 0.142053 1.988 4.08807 0.454178 1.94065 -2.12569 4.43639 -6.33868 -1.88045 13.0232 -6.10051 -0.0 0.0 -0.0 -2.90472 24.4851 -1.06435 -37.0458 -26.8523 64.1377 0.661387 -18.1405 0.105586 10.9371 0.255101 -1.37172 -0.300285 21.9367 7.03229 -0.0 0.0 -0.0 12.4899 24.8965 -24.6251 24.309 23.6055 -58.7648 2.83841 54.569 -1.46426 -6.83534 0.290386 -0.823629 1.05962 6.28243 -4.48944 0.0 0.0 0.0 38.9661 -8.42902 -4.03422 -15.6657 0.322072 2.37503 17.164 8.25891 -2.37345 -36.5657 0.0 0.0 -0.0 0.0 -0.0 -3.92471 -4.28603 6.1435 -17.9624 -0.314326 -2.7273 36.3981 4.21689 4.59637 -6.788 0.0 0.0 0.0 0.0 0.0 
1859.32 683.259 -1332.45 -37.3011 71.1325 35.0032 4.04489 0.464461 1.75952 4.04655 0.351575 1.7855 4.05653 0.0973371 1.81717 4.05213 0.383058 1.77901 -1.18776 5.2477 -4.42993 -0.995667 12.9777 -4.08853 -0.0 0.0 -0.0 -3.39816 24.3447 -1.75777 -37.1301 -28.1243 63.7347 0.839683 -22.5849 0.167673 11.0881 0.256779 -1.39093 -0.0143246 21.7397 8.64243 -0.0 0.0 -0.0 12.6757 26.3639 -24.8866 22.5525 22.8884 -59.2524 2.72794 53.4887 -1.37485 -10.2061 0.469307 -1.21581 0.909184 4.2258 -4.33668 0.0 0.0 0.0 37.1879 -8.97939 -2.87857 -19.1306 0.30497 2.90629 23.2071 9.11562 -3.12271 -35.5732 0.0 0.0 -0.0 0.0 -0.0 -3.54716 -4.25633 7.15325 -20.983 -0.282658 -3.18964 33.2192 1.74607 4.25873 -5.72059 0.0 0.0 0.0 0.0 0.0 
1836.73 686.689 -1322.48 -34.3382 70.6114 32.036 3.93372 0.40247 1.65445 3.93519 0.296393 1.6767 3.94305 0.0545845 1.70181 3.93915 0.322631 1.67185 -0.323443 6.36033 -3.66937 -0.107501 14.34 -3.25803 -0.0 0.0 -0.0 -3.06634 23.8087 -1.41728 -36.2478 -29.5057 63.5989 0.963554 -25.5155 0.218172 10.6816 0.252146 -1.33921 -0.0516341 22.5592 8.72896 -0.0 0.0 -0.0 12.7718 26.4047 -25.103 20.5069 22.9485 -59.3463 2.66834 52.882 -1.32713 -12.5808 0.609103 -1.48555 1.07991 3.80761 -5.66496 0.0 0.0 0.0 36.5042 -9.35363 -1.50217 -21.9176 0.267928 3.33228 26.8762 8.84727 -3.54814 -35.796 0.0 0.0 -0.0 0.0 -0.0 -3.216 -2.78633 8.28304 -22.9961 -0.248038 -3.49659 31.1212 -1.42466 4.01955 -5.35716 0.0 0.0 0.0 0.0 0.0 
1818.48 691.689 -1314.22 -35.5422 70.914 33.313 3.97967 0.117096 1.4985 3.98092 0.0215166 1.50291 3.98076 -0.191852 1.49077 3.97767 0.0459682 1.50236 -0.50462 7.89773 -3.15318 -0.252101 16.678 -2.51778 -0.0 0.0 -0.0 -2.12973 23.6572 -0.166845 -34.5395 -29.8433 62.5095 0.937824 -24.9178 0.207209 10.3498 0.248093 -1.29703 -0.316349 22.501 7.15737 -0.0 0.0 -0.0 12.6146 24.8352 -24.9187 19.3131 22.11 -60.1548 2.62118 52.3896 -1.28965 -14.4375 0.726141 -1.69233 1.10468 3.31002 -6.03936 0.0 0.0 0.0 35.8521 -9.18471 0.284543 -20.7916 0.285388 3.16039 28.8205 11.0471 -3.77373 -37.7528 0.0 0.0 -0.0 0.0 -0.0 -2.75763 -1.14579 9.07099 -25.3453 -0.194031 -3.85301 28.3489 -3.22204 3.71438 -4.21496 0.0 0.0 0.0 0.0 0.0 
1797.03 695.52 -1311.02 -35.734 71.452 32.8778 3.82592 0.0104996 1.50838 3.82718 -0.085493 1.506 3.82425 -0.302292 1.47783 3.82121 -0.0651304 1.50701 0.64714 8.34704 -1.8535 0.891707 16.3399 -1.22018 -0.0 0.0 -0.0 -1.91482 22.9394 0.00751172 -33.9263 -30.5362 62.1003 1.11167 -28.8403 0.285855 9.88699 0.242032 -1.23822 -0.0700921 22.9898 8.78164 -0.0 0.0 -0.0 12.7614 26.1803 -25.1056 17.4075 22.1062 -59.4112 2.40633 49.9989 -1.12219 -15.8773 0.821494 -1.85003 1.08105 2.85594 -6.06789 0.0 0.0 0.0 34.3888 -9.20688 1.30599 -20.3147 0.291764 3.0875 32.0424 8.91017 -4.10803 -36.4497 0.0 0.0 -0.0 0.0 -0.0 -1.71681 0.584619 9.66014 -26.2259 -0.170022 -3.98603 28.7033 -5.36586 3.74834 -4.54252 0.0 0.0 0.0 0.0 0.0 
1783.3 699.241 -1305.66 -35.4962 71.1091 32.2794 3.67654 -0.120802 1.43279 3.67766 -0.21172 1.4222 3.67182 -0.41877 1.37555 3.66924 -0.196296 1.42441 0.925801 8.983 -1.2619 1.18375 16.9563 -0.554128 -0.0 0.0 -0.0 -1.33032 21.8363 0.653027 -32.2369 -31.3273 61.2489 1.1634 -29.9544 0.311246 9.41172 0.235314 -1.17788 -0.0779882 22.9783 8.73123 -0.0 0.0 -0.0 12.8111 26.1173 -25.2274 16.3667 21.9996 -60.2326 2.26848 48.3278 -1.01788 -16.8905 0.890968 -1.95958 1.06806 2.52502 -6.11705 0.0 0.0 0.0 33.1796 -9.11248 2.33564 -18.6753 0.309051 2.83655 33.2786 9.00977 -4.23499 -36.7453 0.0 0.0 -0.0 0.0 -0.0 -0.960352 2.06941 9.99765 -27.2838 -0.138482 -4.14531 28.0418 -6.58942 3.67518 -4.31056 0.0 0.0 0.0 0.0 0.0 
1764.69 701.381 -1301.56 -33.2442 71.9298 29.8328 3.31733 -0.134173 1.33633 3.3183 -0.218928 1.32509 3.31281 -0.419601 1.27583 3.3106 -0.212859 1.32608 -0.0497079 9.8415 -0.86993 0.207591 18.2667 0.0801266 -0.0 0.0 -0.0 -0.597172 21.3574 1.62975 -26.3236 -33.0867 60.7886 0.985494 -26.0204 0.22771 8.25822 0.216927 -1.03169 -0.257173 24.6726 8.33159 -0.0 0.0 -0.0 12.7643 25.8994 -25.1449 13.9889 21.1588 -60.3029 2.16248 46.9636 -0.939549 -17.5606 0.937979 -2.03135 1.11438 2.32589 -6.51224 0.0 0.0 0.0 31.1672 -8.88107 3.57961 -21.6894 0.271739 3.29748 38.8813 8.5361 -4.76813 -37.0078 0.0 0.0 -0.0 0.0 -0.0 -0.373195 7.34768 11.1692 -34.1987 0.139519 -5.16943 30.1384 -10.5191 3.91429 -3.01167 0.0 0.0 0.0 0.0 0.0 
1743.99 706.634 -1298.39 -26.5596 72.2053 23.2085 3.01773 -0.151578 1.40793 3.01881 -0.240853 1.39544 3.01254 -0.459098 1.3396 3.01012 -0.241794 1.39528 -1.49742 11.0827 0.652029 -1.28089 19.4539 2.04721 -0.0 0.0 -0.0 -0.134788 20.9038 2.23832 -21.8555 -34.3849 59.9844 0.877239 -23.4875 0.18237 7.45138 0.202319 -0.929657 -0.422282 25.3957 7.66737 -0.0 0.0 -0.0 12.6387 25.812 -24.8659 10.4703 20.1483 -61.2256 2.08442 45.9122 -0.882979 -17.9639 0.966674 -2.07427 1.22338 2.90349 -7.01114 0.0 0.0 0.0 28.7264 -9.21951 4.96955 -23.9636 0.227567 3.64364 39.542 8.64264 -4.8275 -37.3894 0.0 0.0 -0.0 0.0 -0.0 0.251223 10.2401 10.8834 -39.0717 0.408768 -5.8679 28.4773 -13.9221 3.75611 -2.66857 0.0 0.0 0.0 0.0 0.0 
1726.78 707.772 -1293.97 -25.1341 72.8531 22.2898 2.72949 -0.180532 1.21605 2.73027 -0.257541 1.2021 2.72462 -0.450656 1.14381 2.72289 -0.26437 1.20062 -0.753931 10.7927 -0.336205 -0.493437 19.6235 0.852067 -0.0 0.0 -0.0 -0.0968719 21.1443 2.32034 -17.9379 -35.7135 61.0475 0.805237 -21.7465 0.154677 6.26448 0.17822 -0.779959 -0.5329 26.3703 7.42214 -0.0 0.0 -0.0 12.2138 25.248 -23.9532 8.74362 19.4607 -61.2878 1.88584 43.0469 -0.743801 -18.7873 1.0262 -2.16129 1.1753 1.89536 -7.10126 0.0 0.0 0.0 27.7491 -10.7373 5.91622 -25.3629 0.193569 3.85569 41.2897 11.9633 -5.00631 -37.0788 0.0 0.0 -0.0 0.0 -0.0 0.669764 13.9573 9.09853 -42.4665 0.631095 -6.34007 31.9976 -15.897 4.16038 -1.47336 0.0 0.0 0.0 0.0 0.0 
1706.52 712.405 -1294.48 -22.702 74.0746 19.9196 2.51021 -0.260404 1.14301 2.51088 -0.332604 1.12413 2.50415 -0.516017 1.05263 2.50277 -0.343309 1.12091 -0.555753 11.0384 -0.258718 -0.278452 19.977 0.931047 -0.0 0.0 -0.0 0.0673745 20.7557 2.51358 -15.2812 -36.5372 60.6027 0.757235 -20.5616 0.137353 5.4102 0.158957 -0.672533 -0.641073 26.7531 6.96882 -0.0 0.0 -0.0 12.0073 24.8225 -23.5262 5.59471 18.49 -61.6276 1.76944 41.2317 -0.665692 -19.3649 1.06871 -2.22184 1.19037 1.68367 -7.29009 0.0 0.0 0.0 25.732 -12.0368 6.71451 -27.0427 0.14593 4.10906 42.1576 11.6322 -5.07627 -37.0968 0.0 0.0 -0.0 0.0 -0.0 1.32377 15.9951 7.53983 -44.6751 0.790656 -6.63998 34.3981 -16.935 4.42467 -0.692104 0.0 0.0 0.0 0.0 0.0 
